<svg aria-hidden="true" style="position: absolute; width: 0; height: 0; overflow: hidden;" version="1.1" xmlns="http://www.w3.org/2000/svg" xmlns:xlink="http://www.w3.org/1999/xlink">
<defs>
<symbol id="icon-mail-envelope-open" viewBox="0 0 32 32">
<path d="M16.5 4.3l-11 9.7 11 9.5 11-9.5-11-9.7zM28 14.88l-11.5 10.12-11.5-10.12v13.123c0 0.55 0.439 0.997 1.003 0.997h20.994c0.554 0 1.003-0.45 1.003-0.997v-13.123zM29 28.006c0 1.1-0.897 1.994-2.004 1.994h-20.993c-1.114 0-2.004-0.893-2.004-1.994v-14.006l12.5-11 12.5 11v14.006z"></path>
</symbol>
<symbol id="icon-key" viewBox="0 0 32 32">
<path d="M22 0c-5.523 0-10 4.477-10 10 0 0.626 0.058 1.238 0.168 1.832l-12.168 12.168v6c0 1.105 0.895 2 2 2h2v-2h4v-4h4v-4h4l2.595-2.595c1.063 0.385 2.209 0.595 3.405 0.595 5.523 0 10-4.477 10-10s-4.477-10-10-10zM24.996 10.004c-1.657 0-3-1.343-3-3s1.343-3 3-3 3 1.343 3 3-1.343 3-3 3z"></path>
</symbol>
</defs>
</svg>
